<svg width="213" height="132" viewBox="0 0 213 132" fill="none" xmlns="http://www.w3.org/2000/svg">
<path d="M117.445 67.2827C117.445 67.2827 123.985 82.0737 126.661 80.687C129.338 79.3003 118.186 64.7308 118.186 64.7308C118.186 64.7308 126.333 50.5073 131.427 47.6855C131.427 47.6855 132.67 65.664 134.923 63.6614C137.177 61.6581 136.752 42.89 136.752 42.89C136.752 42.89 147.643 31.9983 154.73 38.0165C161.818 44.0347 161.125 49.957 159.594 51.6906C158.063 53.4241 146.094 61.4268 147.461 62.7561C148.829 64.0846 158.534 61.0414 162.049 56.5829C162.049 56.5829 165.488 72.1447 158.594 75.9775C151.699 79.8104 146.942 77.1822 142.724 79.6283C138.507 82.0745 136.321 85.166 139.065 84.8667C141.81 84.5682 148.091 79.1814 153.217 79.7079C158.343 80.2343 162.128 80.1277 156.967 85.4916C151.805 90.8554 140.49 97.501 135.156 94.3619C134.923 94.2249 134.702 94.0945 134.489 93.9691C134.881 94.261 135.156 94.3619 135.156 94.3619C134.492 95.7707 134.95 99.9971 135.423 103.156C135.536 103.672 135.659 104.407 135.792 105.43C135.871 105.879 135.938 106.246 135.986 106.5C137.512 113.256 144.926 121.636 144.926 121.636L143.88 122.864C134.694 115.597 134.473 104.589 134.473 104.589C133.577 96.3554 129.821 91.2228 129.821 91.2228C129.821 91.2228 113.816 92.6972 113.17 80.2073C113.17 80.2064 113.777 71.8478 117.445 67.2827Z" fill="#F1F1F1"/>
<path d="M70.5079 60.7818C70.5079 60.7818 78.3171 76.4043 86.2501 87.1885C89.4065 91.4806 92.5824 95.0059 95.2927 96.4762C97.9463 97.9146 100.192 100.15 102.051 102.627C106.864 109.041 109.086 117.07 109.086 117.07L129.37 86.3816C129.37 86.3816 128.678 56.3839 126.242 51.3661C122.692 44.0539 120.978 29.2794 119.614 26.3379C118.602 24.1558 115.713 12.8844 115.436 12.0562C115.315 11.6995 114.354 11.1517 113.106 11.1533C112.104 11.1533 110.403 12.1218 109.975 14.1112C107.806 24.1689 110.417 30.8022 110.387 31.0974C109.622 38.827 111.922 44.5648 110.309 46.0843C110.249 46.1409 110.138 46.1138 109.979 46.013C107.183 44.2171 89.8271 18.9141 87.6893 18.368C85.4326 17.7915 70.5079 60.7818 70.5079 60.7818Z" fill="#EFA26F"/>
<path d="M101.016 99.7612C101.016 99.7612 101.292 113.398 102.083 131.765H153.249C141.553 106.825 131.385 85.8337 131.385 85.8337C131.385 85.8337 102.252 86.7235 101.016 99.7612Z" fill="#FD4057"/>
<path d="M52.7731 7.90968L59.0545 17.1187L65.2187 26.1554C65.5943 26.6089 66.0298 26.7664 66.5005 26.7213C67.9798 26.581 69.8101 24.4473 71.2361 23.2665L71.3805 23.1475C73.2616 21.5919 73.5265 18.78 71.9709 16.9005L62.5495 5.5119V5.51108L59.7548 2.13418C58.1992 0.25302 55.3874 -0.0118515 53.5078 1.54375L53.3635 1.66266C51.4832 3.21662 51.2175 6.02852 52.7731 7.90968Z" fill="#FFB27D"/>
<path d="M59.0546 17.118L65.2188 26.1548C65.5944 26.6082 66.0298 26.7657 66.5005 26.7206L62.5504 5.51123C62.5414 5.63014 61.8698 15.1466 59.0546 17.118Z" fill="#EFA26F"/>
<path d="M115.579 12.5217L117.222 19.1574C117.222 19.1574 115.785 19.7454 114.863 19.2887C113.939 18.8327 113.187 12.8793 115.579 12.5217Z" fill="#FFC197"/>
<path d="M68.3128 90.3243H103.655C107.131 90.3243 109.975 87.4804 109.975 84.0035V6.32082C109.975 2.8447 107.132 0 103.655 0H68.3128C64.8367 0 61.992 2.84388 61.992 6.32082V84.0035C61.9928 87.4796 64.8367 90.3243 68.3128 90.3243Z" fill="#4F4F4F"/>
<path d="M64.3709 6.91846V82.8011C64.3709 85.3752 66.462 87.4811 69.0172 87.4811H102.953C105.507 87.4811 107.598 85.3752 107.598 82.8011V6.91846C107.598 4.34437 105.508 2.23853 102.953 2.23853H69.0172C66.462 2.23853 64.3709 4.34437 64.3709 6.91846Z" fill="#FFE6E9"/>
<path d="M69.0163 2.23877L102.532 87.4813H102.952C105.506 87.4813 107.597 85.3755 107.597 82.8014V6.9187C107.597 4.34462 105.507 2.23877 102.952 2.23877H69.0163Z" fill="#FFF1F3"/>
<path d="M78.892 5.06041H93.0753C94.2308 5.06041 95.1763 4.11491 95.1763 2.95948V2.62901C95.1763 1.47358 94.2308 0.528076 93.0753 0.528076H78.892C77.7366 0.528076 76.7911 1.47358 76.7911 2.62901V2.95948C76.7919 4.11573 77.7366 5.06041 78.892 5.06041Z" fill="#4F4F4F"/>
<path d="M55.8999 42.6847L56.8363 43.0406L63.1358 45.4342C63.2834 45.49 63.4327 45.5384 63.5819 45.5761C65.6681 46.1181 67.8871 45.0062 68.6694 42.9479L68.7621 42.706C69.6002 40.5001 68.4816 38.0096 66.2757 37.1716L60.4035 34.9403L59.9771 34.7779L59.0406 34.422C56.8347 33.5839 54.3451 34.7025 53.507 36.9083L53.4143 37.1503C52.5754 39.3553 53.694 41.8466 55.8999 42.6847Z" fill="#FFB27D"/>
<path d="M61.0152 42.829C62.0665 43.2275 63.9698 43.9344 64.9874 44.0803C65.2753 44.1222 65.8058 43.9655 66.3011 43.4227C66.598 43.0979 66.8825 42.6354 67.0933 41.9942C67.1925 41.6924 67.2745 41.3923 67.3089 41.0823C67.3483 40.7198 67.3377 40.3566 67.2745 39.9974C67.2171 39.6735 66.9957 39.3791 66.6734 39.2233C66.6726 39.2225 66.6701 39.2225 66.6685 39.2208C65.5861 38.7042 64.1272 38.0744 62.848 37.7226C61.964 37.4782 61.0693 37.8686 60.7889 38.6427L60.6568 39.0043L59.9811 40.856C59.7015 41.626 60.1566 42.5051 61.0152 42.829Z" fill="#FFD3B6"/>
<path d="M61.0152 42.8291C62.0665 43.2276 63.9698 43.9345 64.9875 44.0805C65.2753 44.1223 65.8058 43.9657 66.3011 43.4228C66.3545 43.2998 66.4028 43.1694 66.4487 43.03C66.548 42.7282 66.63 42.4281 66.6644 42.1181C66.7038 41.7557 66.6931 41.3924 66.63 41.0332C66.5726 40.7093 66.3512 40.4149 66.0289 40.2591C66.0281 40.2583 66.0256 40.2583 66.024 40.2567C64.9415 39.74 63.4827 39.1102 62.2034 38.7584C61.6368 38.6018 61.0669 38.7051 60.6568 39.0036L59.9811 40.8553C59.7015 41.6261 60.1566 42.5052 61.0152 42.8291Z" fill="#FFC197"/>
<path d="M58.7585 51.5408L63.6164 52.8636C65.0925 53.2654 66.6292 52.3863 67.031 50.9102L67.1811 50.3608C67.5829 48.8848 66.7038 47.348 65.2278 46.9462L60.3699 45.6235C58.8938 45.2217 57.3571 46.1007 56.9553 47.5768L56.8052 48.1262C56.4034 49.6031 57.2824 51.139 58.7585 51.5408Z" fill="#FFB27D"/>
<path d="M61.3851 51.3031C62.2773 51.5417 63.8903 51.9616 64.7357 52.0075C65.0432 52.0247 65.6591 51.7648 66.0609 50.9562C66.1601 50.7602 66.2438 50.5339 66.3094 50.2715C66.3684 50.0329 66.4127 49.7967 66.4176 49.5573C66.4234 49.2752 66.3873 48.998 66.3094 48.7257C66.2389 48.4805 66.0355 48.269 65.76 48.1706C65.7575 48.1698 65.7567 48.1698 65.755 48.1681C64.8292 47.8409 63.586 47.4506 62.5102 47.2628C61.7672 47.1324 61.0628 47.4899 60.889 48.1025L60.7635 48.5404L60.3896 49.8541C60.2173 50.4626 60.6561 51.1096 61.3851 51.3031Z" fill="#FFD3B6"/>
<path d="M61.385 51.303C62.2772 51.5416 63.8902 51.9615 64.7357 52.0074C65.0432 52.0246 65.6591 51.7647 66.0609 50.9561C66.115 50.7339 66.1544 50.5117 66.1585 50.2862C66.1642 50.0049 66.1289 49.7269 66.0502 49.4546C65.9797 49.2103 65.7763 48.9979 65.5008 48.8995C65.4983 48.8987 65.4975 48.8987 65.4959 48.897C64.5701 48.5698 63.3269 48.1795 62.251 47.9933C61.636 47.8851 61.0464 48.1123 60.7635 48.5403L60.3895 49.854C60.2173 50.4625 60.656 51.1095 61.385 51.303Z" fill="#FFC197"/>
<path d="M127.809 109.406C127.8 108.537 127.089 107.838 126.22 107.847C125.351 107.855 124.652 108.566 124.661 109.435C124.669 110.304 125.38 111.003 126.249 110.995C127.118 110.987 127.816 110.275 127.809 109.406Z" fill="#FD4057"/>
<path d="M56.0533 33.3753C56.0877 33.3876 56.1222 33.3991 56.1582 33.4114L62.5266 35.0465C65.327 35.7665 68.2226 34.2511 68.9622 31.6795L69.3411 30.3625C70.0512 27.8942 68.5243 25.3127 65.9224 24.4755L63.8198 23.9351L59.554 22.8403C56.7536 22.1203 53.858 23.6358 53.1192 26.2074L52.7403 27.5244C52.0392 29.959 53.5153 32.5028 56.0533 33.3753Z" fill="#FFB27D"/>
<path d="M58.9717 31.5972L62.0657 32.9913C62.0706 32.9921 62.0764 32.9937 62.0854 32.9962C62.21 33.0298 62.3355 33.0552 62.4593 33.0733C62.511 33.0815 62.5643 33.0872 62.616 33.093C62.6381 33.0954 62.6594 33.0954 62.6816 33.0938C63.0227 33.0823 63.2564 32.7207 63.1088 32.3984C62.816 31.762 62.7365 31.0248 62.9341 30.3007L63.0079 30.031C63.0079 30.0285 63.0088 30.0252 63.0104 30.0227L63.2498 29.1445C63.4401 28.4442 63.8444 27.8587 64.3716 27.4347C64.4348 27.3831 64.5004 27.3347 64.5676 27.2888C65.1794 26.8648 65.0236 25.9062 64.3077 25.7069C64.3011 25.7044 64.2954 25.7036 64.288 25.7012L60.8922 25.1878C60.0525 24.9599 59.2448 25.606 59.0152 26.4449L58.7421 27.4454L58.1615 29.5791C57.9327 30.4188 58.132 31.3692 58.9717 31.5972Z" fill="#FFD3B6"/>
<path d="M58.9717 31.5973L62.0656 32.9914C62.0706 32.9922 62.0763 32.9939 62.0853 32.9963C62.1575 33.0103 62.3846 33.048 62.6815 33.0939C63.0226 33.0824 63.2563 32.7208 63.1087 32.3985C62.816 31.7622 62.7364 31.025 62.9341 30.3009L63.0079 30.0311C63.0079 30.0286 63.0087 30.0253 63.0103 30.0229L63.2498 29.1446C63.44 28.4443 63.8443 27.8588 64.3716 27.4348C64.2625 27.2749 64.0985 27.1478 63.8845 27.088C63.8787 27.0855 63.8722 27.0847 63.8648 27.0822L60.469 26.5689C59.7622 26.377 59.0783 26.8051 58.742 27.4455L58.1615 29.5792C57.9327 30.419 58.1319 31.3694 58.9717 31.5973Z" fill="#FFC197"/>
<path d="M109.975 66.5006C109.975 66.5006 111.365 54.3723 112.646 52.0081C113.928 49.6423 115.013 44.9066 113.041 41.3879C111.068 37.8675 110.387 31.0964 110.387 31.0964C109.622 38.8261 111.922 44.5639 110.309 46.0834C110.249 46.14 110.138 46.1129 109.979 46.012L109.975 66.5006Z" fill="#D38254"/>
<path d="M152.245 102.964C152.245 102.964 154.35 97.1874 157.846 94.706C157.846 94.706 159.472 106.463 161.632 106.023C163.792 105.584 158.879 93.0542 158.879 93.0542C158.879 93.0542 167.462 84.6604 171.609 83.6955C171.609 83.6955 168.871 96.6343 170.858 95.6745C172.844 94.7155 176.315 81.3853 176.315 81.3853C176.315 81.3853 183.559 77.345 188 79.7811V93.3446C184.601 94.6957 179.344 96.6731 179.853 97.5634C180.363 98.4544 184.502 98.5883 188 97.6329V107.08C187.205 108.098 186.226 108.856 185.023 109.138C179.406 110.452 176.591 107.637 173.134 108.514C169.678 109.39 167.522 111.13 169.51 111.472C171.499 111.815 176.996 109.281 180.493 110.686C183.992 112.09 186.673 112.779 181.967 115.523C177.262 118.268 167.975 120.676 164.855 117.385C164.855 117.385 164.855 117.385 164.855 117.384C164.718 117.24 164.589 117.103 164.465 116.972C164.464 116.971 164.463 116.97 164.463 116.97C164.681 117.258 164.855 117.385 164.855 117.385C164.106 118.245 163.578 121.322 163.276 123.647C163.252 124.031 163.19 124.574 163.08 125.317C163.044 125.663 163.017 125.942 162.999 126.134C162.918 127.636 163.168 129.342 163.563 131H162.065C161.587 127.267 162.319 124.476 162.322 124.464V124.464C163.346 118.473 161.737 114.093 161.737 114.093C161.71 114.09 150.192 111.898 152.245 102.964Z" fill="#F1F1F1"/>
<path d="M31.6196 92.4059C33.5833 85.0382 45.8174 87.3406 45.8174 87.3406C45.8174 87.3406 54.1248 100.233 56.5418 100.541C58.9587 100.849 51.5572 88.108 51.5572 88.108C56.2398 87.6474 68.172 93.4802 68.172 93.4802C68.172 93.4802 67.4167 108.522 69.8337 108.216C72.2507 107.909 69.8337 94.862 69.8337 94.862C74.365 96.2432 78.5944 101.616 78.5944 101.616C83.8809 110.365 72.5526 116.811 72.5526 116.811C72.5526 116.811 72.4013 122.03 75.5735 128.016C75.5735 128.016 76.2896 129.121 77.0173 131H75.782C75.6814 130.663 75.5699 130.338 75.4468 130.026C75.4468 130.024 75.4461 130.022 75.4446 130.02C75.4432 130.015 75.441 130.011 75.4388 130.007C75.3541 129.812 75.2325 129.536 75.0811 129.2L75.0804 129.199L75.0797 129.197C74.7024 128.447 74.4476 127.892 74.2861 127.492L74.2846 127.488C73.1536 125.131 71.5245 122.061 70.4383 121.416C70.4383 121.416 70.5752 121.22 70.7026 120.84C70.6186 121.024 70.5303 121.215 70.4383 121.416C68.324 126.021 57.7502 126.788 51.8598 125.56C45.9694 124.332 48.537 122.644 51.7092 119.903C54.8814 117.163 61.5271 117.886 63.4908 116.811C65.4545 115.736 62.5842 114.662 58.6575 114.969C54.7301 115.276 52.7671 119.267 46.4227 119.88C40.0791 120.494 35.2458 108.369 35.2458 108.369C39.6258 109.75 47.4806 107.294 47.7826 105.759C48.0845 104.225 36.4543 104.378 34.6419 103.918C32.8274 103.457 29.6559 99.7736 31.6196 92.4059Z" fill="#F1F1F1"/>
<rect width="30" height="5" rx="2.5" transform="matrix(-1 0 0 1 101 22)" fill="#FFD6DB"/>
<rect width="18" height="5" rx="2.5" transform="matrix(-1 0 0 1 95 31)" fill="#FFD6DB"/>
<rect width="18" height="5" rx="2.5" transform="matrix(-1 0 0 1 95 49)" fill="#FFD6DB"/>
<rect width="30" height="5" rx="2.5" transform="matrix(-1 0 0 1 101 40)" fill="#FFD6DB"/>
<rect width="30" height="7" rx="3.5" transform="matrix(-1 0 0 1 101 65)" fill="#FC919E"/>
<line y1="131.5" x2="213" y2="131.5" stroke="#484848"/>
</svg>
