<svg width="15" height="14" viewBox="0 0 15 14" fill="none" xmlns="http://www.w3.org/2000/svg">
<path d="M10.3079 9.5636H6.08709C5.52901 9.56305 4.98849 9.36723 4.55818 9.0097C4.12787 8.65217 3.83457 8.1552 3.72853 7.60396L2.90611 3.2937C2.86664 3.07987 2.76463 2.88276 2.61315 2.7276C2.46166 2.57243 2.2676 2.46629 2.0558 2.42275L1.41614 2.29211C1.27156 2.23312 1.15213 2.12498 1.07864 1.98653C1.00516 1.84807 0.982268 1.68807 1.01396 1.53439C1.04566 1.3807 1.12993 1.24307 1.25211 1.14546C1.37428 1.04785 1.52661 0.996442 1.68258 1.00019L2.32224 1.13664C2.78666 1.23236 3.21237 1.46464 3.54544 1.80403C3.8785 2.14342 4.10392 2.57465 4.19312 3.04306L5.02132 7.35332C5.06911 7.60445 5.20227 7.83102 5.39796 7.99418C5.59365 8.15733 5.83968 8.24689 6.09383 8.24749H10.3146C10.5353 8.24465 10.7501 8.17576 10.9317 8.0496C11.1133 7.92343 11.2534 7.74572 11.3342 7.53912L12.7328 3.85595C12.7966 3.69298 12.9221 3.56216 13.0818 3.49229C13.2414 3.42242 13.4221 3.41921 13.5841 3.48338C13.7461 3.54754 13.8761 3.67382 13.9456 3.83443C14.015 3.99505 14.0182 4.17684 13.9544 4.33982L12.551 8.0075C12.3751 8.46248 12.067 8.85358 11.6668 9.12977C11.2667 9.40597 10.7931 9.55445 10.3079 9.55586V9.5636Z" fill="white" stroke="white" stroke-width="0.3"/>
<path d="M10.2473 13C10.8508 13 11.34 12.5078 11.34 11.9007C11.34 11.2935 10.8508 10.8013 10.2473 10.8013C9.64383 10.8013 9.1546 11.2935 9.1546 11.9007C9.1546 12.5078 9.64383 13 10.2473 13Z" fill="white" stroke="white" stroke-width="0.3"/>
<path d="M5.9563 13C6.55979 13 7.04901 12.5078 7.04901 11.9007C7.04901 11.2935 6.55979 10.8013 5.9563 10.8013C5.35281 10.8013 4.86359 11.2935 4.86359 11.9007C4.86359 12.5078 5.35281 13 5.9563 13Z" fill="white" stroke="white" stroke-width="0.3"/>
<path d="M8.33313 5.84754C8.16009 5.84576 7.99452 5.77635 7.87142 5.65399L5.78123 3.54532C5.66098 3.4212 5.59418 3.25442 5.59529 3.08111C5.5964 2.90779 5.66532 2.7419 5.78714 2.61934C5.90895 2.49679 6.07385 2.42745 6.24612 2.42633C6.41839 2.42522 6.58416 2.49243 6.70753 2.6134L8.34275 4.25853L11.3958 1.17922C11.5236 1.09424 11.6767 1.05616 11.8291 1.07138C11.9816 1.0866 12.1242 1.1542 12.2329 1.2628C12.3417 1.3714 12.4099 1.51437 12.4261 1.66765C12.4424 1.82092 12.4056 1.97515 12.3221 2.10437L8.79676 5.6598C8.67227 5.7805 8.50603 5.84782 8.33313 5.84754Z" fill="white" stroke="white" stroke-width="0.3"/>
</svg>