<svg width="16" height="17" viewBox="0 0 16 17" fill="none" xmlns="http://www.w3.org/2000/svg">
<path fill-rule="evenodd" clip-rule="evenodd" d="M7.60891 0C7.70704 0 7.80116 0.038982 7.87054 0.10837C7.93993 0.177759 7.97891 0.27187 7.97891 0.37V1.478H12.3649C12.5562 1.47812 12.7442 1.52773 12.9107 1.622C13.0772 1.71627 13.2164 1.852 13.3149 2.016L15.0869 4.973C15.1903 5.14534 15.2449 5.34253 15.2449 5.5435C15.2449 5.74447 15.1903 5.94166 15.0869 6.114L13.3149 9.071C13.2163 9.23514 13.0769 9.37097 12.9103 9.46525C12.7436 9.55953 12.5554 9.60905 12.3639 9.609H7.97791V16.261H9.08691C9.18159 16.2659 9.27076 16.307 9.33603 16.3758C9.4013 16.4445 9.43769 16.5357 9.43769 16.6305C9.43769 16.7253 9.4013 16.8165 9.33603 16.8852C9.27076 16.954 9.18159 16.9951 9.08691 17H6.12991C6.03524 16.9951 5.94607 16.954 5.8808 16.8852C5.81553 16.8165 5.77914 16.7253 5.77914 16.6305C5.77914 16.5357 5.81553 16.4445 5.8808 16.3758C5.94607 16.307 6.03524 16.2659 6.12991 16.261H7.23891V9.609H1.69591C1.40179 9.609 1.11971 9.49216 0.911733 9.28418C0.703755 9.0762 0.586914 8.79412 0.586914 8.5V2.587C0.586914 2.44136 0.615599 2.29715 0.671332 2.1626C0.727064 2.02805 0.808753 1.9058 0.911733 1.80282C1.11971 1.59484 1.40179 1.478 1.69591 1.478H7.23891V0.37C7.23891 0.321411 7.24848 0.273298 7.26708 0.228407C7.28567 0.183517 7.31293 0.142728 7.34728 0.10837C7.38164 0.0740128 7.42243 0.0467588 7.46732 0.0281646C7.51221 0.00957032 7.56033 0 7.60891 0ZM1.69591 2.217C1.59778 2.217 1.50367 2.25598 1.43428 2.32537C1.3649 2.39476 1.32591 2.48887 1.32591 2.587V8.5C1.32591 8.59813 1.3649 8.69224 1.43428 8.76163C1.50367 8.83102 1.59778 8.87 1.69591 8.87H12.3639C12.4278 8.86992 12.4906 8.85329 12.5461 8.82175C12.6017 8.79021 12.6481 8.74482 12.6809 8.69L14.4549 5.734C14.4893 5.67658 14.5074 5.61092 14.5074 5.544C14.5074 5.47708 14.4893 5.41142 14.4549 5.354L12.6809 2.4C12.648 2.34504 12.6014 2.29956 12.5457 2.268C12.4899 2.23645 12.427 2.21991 12.3629 2.22L1.69591 2.217Z" fill="#293644"/>
</svg>
