<svg width="18" height="18" viewBox="0 0 18 18" fill="none" xmlns="http://www.w3.org/2000/svg">
<g clip-path="url(#clip0_1534_979)">
<path d="M16.3125 3.375C16.4617 3.375 16.6048 3.43426 16.7102 3.53975C16.8157 3.64524 16.875 3.78832 16.875 3.9375V14.0625C16.875 14.2117 16.8157 14.3548 16.7102 14.4602C16.6048 14.5657 16.4617 14.625 16.3125 14.625H1.6875C1.53832 14.625 1.39524 14.5657 1.28975 14.4602C1.18426 14.3548 1.125 14.2117 1.125 14.0625V3.9375C1.125 3.78832 1.18426 3.64524 1.28975 3.53975C1.39524 3.43426 1.53832 3.375 1.6875 3.375H16.3125ZM1.6875 2.25C1.23995 2.25 0.810725 2.42779 0.494257 2.74426C0.17779 3.06072 0 3.48995 0 3.9375L0 14.0625C0 14.5101 0.17779 14.9393 0.494257 15.2557C0.810725 15.5722 1.23995 15.75 1.6875 15.75H16.3125C16.7601 15.75 17.1893 15.5722 17.5057 15.2557C17.8222 14.9393 18 14.5101 18 14.0625V3.9375C18 3.48995 17.8222 3.06072 17.5057 2.74426C17.1893 2.42779 16.7601 2.25 16.3125 2.25H1.6875Z" fill="#484848"/>
<path d="M7.87499 6.18753C7.87499 6.03834 7.93425 5.89527 8.03974 5.78978C8.14523 5.68429 8.28831 5.62503 8.43749 5.62503H14.0625C14.2117 5.62503 14.3547 5.68429 14.4602 5.78978C14.5657 5.89527 14.625 6.03834 14.625 6.18753C14.625 6.33671 14.5657 6.47979 14.4602 6.58528C14.3547 6.69077 14.2117 6.75003 14.0625 6.75003H8.43749C8.28831 6.75003 8.14523 6.69077 8.03974 6.58528C7.93425 6.47979 7.87499 6.33671 7.87499 6.18753ZM6.19199 5.22678C6.24437 5.27903 6.28593 5.3411 6.31429 5.40944C6.34265 5.47778 6.35725 5.55104 6.35725 5.62503C6.35725 5.69902 6.34265 5.77228 6.31429 5.84062C6.28593 5.90895 6.24437 5.97103 6.19199 6.02328L4.50449 7.71078C4.45224 7.76316 4.39017 7.80472 4.32183 7.83308C4.25349 7.86144 4.18023 7.87603 4.10624 7.87603C4.03225 7.87603 3.95899 7.86144 3.89065 7.83308C3.82231 7.80472 3.76024 7.76316 3.70799 7.71078L3.14549 7.14828C3.09319 7.09598 3.05171 7.03389 3.0234 6.96556C2.9951 6.89723 2.98053 6.82399 2.98053 6.75003C2.98053 6.60066 3.03987 6.4574 3.14549 6.35178C3.25111 6.24616 3.39437 6.18682 3.54374 6.18682C3.69311 6.18682 3.83637 6.24616 3.94199 6.35178L4.10624 6.51715L5.39549 5.22678C5.44774 5.17439 5.50981 5.13283 5.57815 5.10448C5.64649 5.07612 5.71975 5.06152 5.79374 5.06152C5.86773 5.06152 5.94099 5.07612 6.00933 5.10448C6.07767 5.13283 6.13974 5.17439 6.19199 5.22678ZM7.87499 10.6875C7.87499 10.5383 7.93425 10.3953 8.03974 10.2898C8.14523 10.1843 8.28831 10.125 8.43749 10.125H14.0625C14.2117 10.125 14.3547 10.1843 14.4602 10.2898C14.5657 10.3953 14.625 10.5383 14.625 10.6875C14.625 10.8367 14.5657 10.9798 14.4602 11.0853C14.3547 11.1908 14.2117 11.25 14.0625 11.25H8.43749C8.28831 11.25 8.14523 11.1908 8.03974 11.0853C7.93425 10.9798 7.87499 10.8367 7.87499 10.6875ZM6.19199 9.72678C6.24437 9.77903 6.28593 9.8411 6.31429 9.90944C6.34265 9.97778 6.35725 10.051 6.35725 10.125C6.35725 10.199 6.34265 10.2723 6.31429 10.3406C6.28593 10.409 6.24437 10.471 6.19199 10.5233L4.50449 12.2108C4.45224 12.2632 4.39017 12.3047 4.32183 12.3331C4.25349 12.3614 4.18023 12.376 4.10624 12.376C4.03225 12.376 3.95899 12.3614 3.89065 12.3331C3.82231 12.3047 3.76024 12.2632 3.70799 12.2108L3.14549 11.6483C3.09319 11.596 3.05171 11.5339 3.0234 11.4656C2.9951 11.3972 2.98053 11.324 2.98053 11.25C2.98053 11.1761 2.9951 11.1028 3.0234 11.0345C3.05171 10.9662 3.09319 10.9041 3.14549 10.8518C3.19779 10.7995 3.25988 10.758 3.32821 10.7297C3.39654 10.7014 3.46978 10.6868 3.54374 10.6868C3.6177 10.6868 3.69094 10.7014 3.75927 10.7297C3.8276 10.758 3.88969 10.7995 3.94199 10.8518L4.10624 11.0172L5.39549 9.72678C5.44774 9.6744 5.50981 9.63283 5.57815 9.60448C5.64649 9.57612 5.71975 9.56152 5.79374 9.56152C5.86773 9.56152 5.94099 9.57612 6.00933 9.60448C6.07767 9.63283 6.13974 9.6744 6.19199 9.72678Z" fill="#484848"/>
</g>
<defs>
<clipPath id="clip0_1534_979">
<rect width="18" height="18" fill="white"/>
</clipPath>
</defs>
</svg>
