<svg width="22" height="18" viewBox="0 0 22 18" fill="none" xmlns="http://www.w3.org/2000/svg">
<path fill-rule="evenodd" clip-rule="evenodd" d="M6.10352e-05 0.9C6.10352e-05 0.661305 0.0948822 0.432387 0.263665 0.263604C0.432448 0.0948211 0.661366 2.1843e-08 0.900061 2.1843e-08H4.04196C4.62878 -7.45973e-05 5.19966 0.191036 5.66816 0.544401C6.13666 0.897767 6.47728 1.39415 6.63846 1.9584L7.33956 4.41L18.4924 3.024C18.9225 2.97052 19.3592 3.02139 19.7656 3.17231C20.1719 3.32324 20.536 3.56978 20.8269 3.8911C21.1179 4.21241 21.3272 4.59906 21.4372 5.01835C21.5471 5.43764 21.5545 5.87724 21.4588 6.3L20.0962 12.2967C19.9607 12.8944 19.6259 13.4283 19.1469 13.8105C18.6678 14.1928 18.0729 14.4006 17.4601 14.4H10.3501C9.76324 14.4001 9.19237 14.209 8.72387 13.8556C8.25536 13.5022 7.91474 13.0059 7.75356 12.4416L4.90776 2.4525C4.85392 2.26427 4.74018 2.09874 4.58377 1.98099C4.42737 1.86324 4.23684 1.7997 4.04106 1.8H0.900061C0.661366 1.8 0.432448 1.70518 0.263665 1.5364C0.0948822 1.36761 6.10352e-05 1.13869 6.10352e-05 0.9ZM7.83906 6.1632L9.49236 11.9475C9.54616 12.1356 9.65977 12.301 9.81599 12.4187C9.97221 12.5365 10.1625 12.6001 10.3582 12.6H17.4601C17.664 12.6 17.8619 12.5307 18.0214 12.4035C18.1808 12.2763 18.2923 12.0987 18.3376 11.8998L19.7002 5.9022C19.7323 5.76113 19.7299 5.6144 19.6932 5.47445C19.6565 5.3345 19.5867 5.20545 19.4895 5.09824C19.3924 4.99103 19.2708 4.90882 19.1352 4.85857C18.9995 4.80833 18.8537 4.79153 18.7102 4.8096L7.83996 6.1632H7.83906ZM9.00006 17.1C9.00006 16.8613 9.09488 16.6324 9.26367 16.4636C9.43245 16.2948 9.66137 16.2 9.90006 16.2H10.8001C11.0388 16.2 11.2677 16.2948 11.4365 16.4636C11.6052 16.6324 11.7001 16.8613 11.7001 17.1C11.7001 17.3387 11.6052 17.5676 11.4365 17.7364C11.2677 17.9052 11.0388 18 10.8001 18H9.90006C9.66137 18 9.43245 17.9052 9.26367 17.7364C9.09488 17.5676 9.00006 17.3387 9.00006 17.1ZM16.2001 17.1C16.2001 16.8613 16.2949 16.6324 16.4637 16.4636C16.6324 16.2948 16.8614 16.2 17.1001 16.2H18.0001C18.2388 16.2 18.4677 16.2948 18.6365 16.4636C18.8052 16.6324 18.9001 16.8613 18.9001 17.1C18.9001 17.3387 18.8052 17.5676 18.6365 17.7364C18.4677 17.9052 18.2388 18 18.0001 18H17.1001C16.8614 18 16.6324 17.9052 16.4637 17.7364C16.2949 17.5676 16.2001 17.3387 16.2001 17.1Z" fill="#AAAAAA"/>
</svg>
