<svg width="18" height="18" viewBox="0 0 18 18" fill="none" xmlns="http://www.w3.org/2000/svg">
<path d="M1.125 3.375C1.125 3.07663 1.24353 2.79048 1.4545 2.5795C1.66548 2.36853 1.95163 2.25 2.25 2.25H15.75C16.0484 2.25 16.3345 2.36853 16.5455 2.5795C16.7565 2.79048 16.875 3.07663 16.875 3.375H1.125ZM9 12.375C9.59674 12.375 10.169 12.1379 10.591 11.716C11.0129 11.294 11.25 10.7217 11.25 10.125C11.25 9.52826 11.0129 8.95597 10.591 8.53401C10.169 8.11205 9.59674 7.875 9 7.875C8.40326 7.875 7.83097 8.11205 7.40901 8.53401C6.98705 8.95597 6.75 9.52826 6.75 10.125C6.75 10.7217 6.98705 11.294 7.40901 11.716C7.83097 12.1379 8.40326 12.375 9 12.375Z" fill="#484848"/>
<path d="M0 5.625C0 5.32663 0.118526 5.04048 0.329505 4.82951C0.540483 4.61853 0.826631 4.5 1.125 4.5H16.875C17.1734 4.5 17.4595 4.61853 17.6705 4.82951C17.8815 5.04048 18 5.32663 18 5.625V14.625C18 14.9234 17.8815 15.2095 17.6705 15.4205C17.4595 15.6315 17.1734 15.75 16.875 15.75H1.125C0.826631 15.75 0.540483 15.6315 0.329505 15.4205C0.118526 15.2095 0 14.9234 0 14.625V5.625ZM3.375 5.625C3.375 6.22174 3.13795 6.79403 2.71599 7.21599C2.29403 7.63795 1.72174 7.875 1.125 7.875V12.375C1.72174 12.375 2.29403 12.6121 2.71599 13.034C3.13795 13.456 3.375 14.0283 3.375 14.625H14.625C14.625 14.0283 14.8621 13.456 15.284 13.034C15.706 12.6121 16.2783 12.375 16.875 12.375V7.875C16.2783 7.875 15.706 7.63795 15.284 7.21599C14.8621 6.79403 14.625 6.22174 14.625 5.625H3.375Z" fill="#484848"/>
</svg>
