<svg width="18" height="18" viewBox="0 0 18 18" fill="none" xmlns="http://www.w3.org/2000/svg">
<path d="M0 2.25V7.5H7.5V0H2.25C1.0095 0 0 1.0095 0 2.25ZM6 6H1.5V2.25C1.5 1.83675 1.83675 1.5 2.25 1.5H6V6ZM16.5 2.25C16.5 1.0095 15.4905 0 14.25 0H9V7.5H16.5V2.25ZM15 6H10.5V1.5H14.25C14.6632 1.5 15 1.83675 15 2.25V6ZM0 14.25C0 15.4905 1.0095 16.5 2.25 16.5H7.5V9H0V14.25ZM1.5 10.5H6V15H2.25C1.83675 15 1.5 14.6633 1.5 14.25V10.5ZM17.9842 16.923L15.8752 14.814C16.2682 14.2208 16.5 13.512 16.5 12.7493C16.5 10.6815 14.8177 8.99925 12.75 8.99925C10.6822 8.99925 9 10.6815 9 12.7493C9 14.817 10.6822 16.4993 12.75 16.4993C13.5127 16.4993 14.2215 16.2675 14.8147 15.8745L16.9237 17.9835L17.9842 16.923ZM12.75 15C11.5095 15 10.5 13.9905 10.5 12.75C10.5 11.5095 11.5095 10.5 12.75 10.5C13.9905 10.5 15 11.5095 15 12.75C15 13.9905 13.9905 15 12.75 15Z" fill="#AAAAAA"/>
</svg>