<svg width="24" height="24" viewBox="0 0 24 24" fill="none" xmlns="http://www.w3.org/2000/svg">
<path d="M6.24229 10.8003C5.0924 10.8003 3.94318 10.8016 2.79329 10.7996C1.16061 10.797 0.00537987 9.64641 0.00337658 8.01974C0.000705528 6.27087 0.000705528 4.52133 0.00337658 2.77246C0.00604763 1.15981 1.16261 0.00524655 2.77793 0.00257549C4.52747 -9.55585e-05 6.27634 -9.55585e-05 8.02588 0.00257549C9.6432 0.00524655 10.7998 1.15781 10.8018 2.77045C10.8051 5.14435 10.8031 7.51825 10.8024 9.89148C10.8024 10.4845 10.4859 10.799 9.89094 10.7996C8.67428 10.801 7.45828 10.8003 6.24229 10.8003ZM9.20248 9.20101C9.20248 9.08749 9.20248 9.01337 9.20248 8.93858C9.20248 6.89055 9.20315 4.84186 9.20248 2.79383C9.20248 2.03592 8.76777 1.60254 8.00919 1.60254C6.27701 1.60187 4.54483 1.60187 2.81265 1.60254C2.03404 1.60254 1.60334 2.02924 1.60334 2.80251C1.60267 4.526 1.60267 6.2495 1.60334 7.973C1.60334 8.78099 2.02469 9.20035 2.83603 9.20101C4.85935 9.20168 6.88334 9.20101 8.90666 9.20101C8.99614 9.20101 9.08562 9.20101 9.20248 9.20101Z" fill="#D75966"/>
<path d="M17.7263 10.8002C16.5183 10.8002 15.3103 10.8009 14.1023 10.7996C13.526 10.7989 13.2028 10.4777 13.2022 9.90543C13.2015 7.52352 13.1988 5.14094 13.2028 2.75903C13.2055 1.16308 14.3661 0.00584293 15.9654 0.00250411C17.7229 -0.000834704 19.4805 -0.000834704 21.2387 0.00250411C22.8407 0.00584293 23.9979 1.16041 24.0012 2.75903C24.0052 4.51658 24.0046 6.27414 24.0012 8.03102C23.9986 9.64367 22.8413 10.7956 21.2247 10.7996C20.0588 10.8029 18.8928 10.8002 17.7263 10.8002ZM14.8021 9.18559C14.8589 9.19226 14.8903 9.19961 14.9217 9.19961C17.0618 9.20028 19.202 9.20428 21.3422 9.19694C21.9505 9.19493 22.3986 8.72149 22.3999 8.09913C22.4046 6.30085 22.4046 4.50256 22.3999 2.70361C22.3986 2.05988 21.9392 1.60447 21.2928 1.60313C19.5025 1.59913 17.7122 1.59979 15.9213 1.60313C15.2595 1.60447 14.8075 2.05788 14.8021 2.71696C14.7981 3.27455 14.8015 3.8328 14.8015 4.39038C14.8021 5.98032 14.8021 7.57093 14.8021 9.18559Z" fill="#D75966"/>
<path d="M17.7483 13.2002C18.9062 13.2002 20.0641 13.1982 21.222 13.2009C22.85 13.2042 23.9999 14.3581 24.0019 15.9908C24.0039 17.7317 24.0039 19.4725 24.0019 21.2127C23.9999 22.8441 22.8487 23.9959 21.2173 23.998C19.4765 24.0006 17.7356 24 15.9941 23.998C14.3621 23.9959 13.2049 22.8447 13.2029 21.2194C13.2002 18.8542 13.2022 16.4883 13.2022 14.1231C13.2022 13.5134 13.5154 13.2009 14.1244 13.2002C15.3323 13.1996 16.5403 13.2002 17.7483 13.2002ZM14.8021 14.8002C14.8021 14.917 14.8021 14.9992 14.8021 15.082C14.8021 17.1133 14.8021 19.1453 14.8021 21.1767C14.8021 21.9726 15.2248 22.3987 16.0148 22.3993C17.7383 22.4 19.4625 22.4 21.186 22.3993C21.9766 22.3993 22.4013 21.9726 22.402 21.1793C22.4026 19.4638 22.4026 17.749 22.402 16.0335C22.402 15.2222 21.9826 14.8009 21.1746 14.8002C19.1426 14.7995 17.1106 14.8002 15.0793 14.8002C14.9978 14.8002 14.9157 14.8002 14.8021 14.8002Z" fill="#D75966"/>
<path d="M6.26078 13.2002C7.46876 13.2002 8.67675 13.1995 9.88473 13.2002C10.4897 13.2009 10.8022 13.516 10.8022 14.127C10.8029 16.4923 10.8042 18.8582 10.8016 21.2234C10.7996 22.8387 9.645 23.9946 8.03102 23.9973C6.27347 24.0006 4.51592 24.0013 2.7577 23.9973C1.16241 23.9932 0.00584293 22.832 0.00250411 21.2327C-0.000834704 19.4752 -0.000834704 17.7176 0.00250411 15.9607C0.00584293 14.3621 1.16241 13.2055 2.7617 13.2009C3.92828 13.1975 5.09487 13.2002 6.26078 13.2002ZM9.20228 14.8002C9.08942 14.8002 9.0153 14.8002 8.94051 14.8002C6.89182 14.8002 4.84312 14.7995 2.79509 14.8002C2.03584 14.8002 1.60313 15.2335 1.60246 15.9921C1.6018 17.7236 1.6018 19.4558 1.60246 21.1873C1.60246 21.9659 2.02983 22.3973 2.80177 22.398C4.53395 22.3986 6.26612 22.3986 7.9983 22.398C8.77224 22.3973 9.20161 21.9666 9.20228 21.1913C9.20294 19.1513 9.20228 17.1113 9.20228 15.0713C9.20228 14.9905 9.20228 14.909 9.20228 14.8002Z" fill="#D75966"/>
</svg>
