<svg width="59" height="59" viewBox="0 0 59 59" fill="none" xmlns="http://www.w3.org/2000/svg">
<path fill-rule="evenodd" clip-rule="evenodd" d="M29.496 2.56699C24.1688 2.56699 18.9612 4.1467 14.5317 7.10635C10.1023 10.066 6.64995 14.2727 4.61131 19.1944C2.57266 24.1161 2.03926 29.5319 3.07855 34.7567C4.11785 39.9816 6.68316 44.781 10.4501 48.5479C14.217 52.3148 19.0164 54.8801 24.2412 55.9194C29.4661 56.9587 34.8819 56.4253 39.8036 54.3867C44.7253 52.348 48.932 48.8957 51.8916 44.4663C54.8513 40.0368 56.431 34.8292 56.431 29.502C56.4309 27.8586 56.2823 26.2186 55.987 24.602C55.9491 24.4334 55.9457 24.2589 55.9769 24.089C56.0081 23.919 56.0733 23.7571 56.1687 23.613C56.264 23.4689 56.3874 23.3455 56.5316 23.2503C56.6757 23.155 56.8377 23.0899 57.0076 23.0588C57.1776 23.0276 57.3521 23.0311 57.5206 23.0691C57.6892 23.1071 57.8484 23.1787 57.9886 23.2796C58.1288 23.3806 58.2471 23.5089 58.3366 23.6567C58.426 23.8045 58.4847 23.9689 58.509 24.14C59.7431 30.8192 58.6346 37.7196 55.3706 43.6762C52.1067 49.6327 46.8872 54.2805 40.5935 56.8347C34.2999 59.3889 27.3176 59.6931 20.8256 57.6959C14.3337 55.6986 8.72982 51.5224 4.96022 45.8722C1.19061 40.222 -0.513763 33.4441 0.134863 26.6829C0.783488 19.9218 3.74538 13.5915 8.52042 8.76106C13.2955 3.93061 19.5911 0.895896 26.3444 0.169318C33.0976 -0.557259 39.8947 1.06882 45.588 4.77299C45.7323 4.86351 45.857 4.98184 45.9551 5.12108C46.0531 5.26032 46.1225 5.41769 46.1591 5.58401C46.1957 5.75033 46.1988 5.92227 46.1683 6.08981C46.1377 6.25735 46.0741 6.41713 45.9812 6.55984C45.8883 6.70255 45.7679 6.82533 45.627 6.92103C45.4861 7.01672 45.3276 7.08341 45.1607 7.11722C44.9938 7.15102 44.8218 7.15125 44.6548 7.1179C44.4878 7.08456 44.3291 7.0183 44.188 6.92299C39.819 4.07195 34.7129 2.55805 29.496 2.56699ZM53.496 13.202C53.6154 13.3212 53.7101 13.4627 53.7747 13.6185C53.8393 13.7743 53.8726 13.9413 53.8726 14.11C53.8726 14.2787 53.8393 14.4457 53.7747 14.6015C53.7101 14.7573 53.6154 14.8988 53.496 15.018L30.404 38.102C30.2848 38.2214 30.1433 38.3161 29.9875 38.3807C29.8317 38.4453 29.6647 38.4786 29.496 38.4786C29.3273 38.4786 29.1603 38.4453 29.0045 38.3807C28.8487 38.3161 28.7072 38.2214 28.588 38.102L18.327 27.845C18.0862 27.6042 17.9509 27.2776 17.9509 26.937C17.9509 26.5964 18.0862 26.2698 18.327 26.029C18.5678 25.7882 18.8944 25.6529 19.235 25.6529C19.5756 25.6529 19.9022 25.7882 20.143 26.029L29.496 35.384L51.675 13.202C51.7943 13.0819 51.9361 12.9865 52.0924 12.9215C52.2486 12.8564 52.4162 12.8229 52.5855 12.8229C52.7548 12.8229 52.9224 12.8564 53.0786 12.9215C53.2349 12.9865 53.3767 13.0819 53.496 13.202Z" fill="#69A94B"/>
</svg>
