<svg width="19" height="19" viewBox="0 0 19 19" fill="none" xmlns="http://www.w3.org/2000/svg">
<path fill-rule="evenodd" clip-rule="evenodd" d="M9.66399 2.41006C8.21045 2.41007 6.78822 2.83246 5.5703 3.62585C4.35238 4.41924 3.39125 5.54944 2.80381 6.87899C2.21637 8.20855 2.02794 9.68015 2.26143 11.1148C2.49492 12.5495 3.14027 13.8854 4.11899 14.9601C4.73485 13.6222 5.81392 12.5524 7.15699 11.9481C6.59431 11.4423 6.19777 10.7781 6.01948 10.0428C5.84119 9.30755 5.88948 8.53553 6.15801 7.8282C6.42654 7.12086 6.90275 6.5113 7.52408 6.07958C8.14541 5.64786 8.88279 5.41417 9.63937 5.40923C10.3959 5.40429 11.1363 5.62831 11.7632 6.05187C12.3902 6.47544 12.8743 7.07873 13.152 7.78249C13.4298 8.48626 13.4882 9.25758 13.3195 9.99513C13.1508 10.7327 12.763 11.402 12.207 11.9151C12.8916 12.1819 13.5144 12.5862 14.0367 13.103C14.559 13.6199 14.9699 14.2383 15.244 14.9201C16.2118 13.8419 16.8467 12.5064 17.0717 11.0752C17.2968 9.6439 17.1025 8.17808 16.5123 6.85488C15.9221 5.53169 14.9613 4.40777 13.7459 3.61898C12.5306 2.83019 11.1128 2.4103 9.66399 2.41006ZM15.476 16.7821C16.884 15.5913 17.8923 13.9968 18.3645 12.2143C18.8366 10.4317 18.7498 8.54712 18.1158 6.81551C17.4818 5.0839 16.3312 3.58884 14.8196 2.5326C13.308 1.47635 11.5085 0.909912 9.66449 0.909912C7.82046 0.909912 6.02093 1.47635 4.50938 2.5326C2.99782 3.58884 1.8472 5.0839 1.21318 6.81551C0.57916 8.54712 0.492349 10.4317 0.964491 12.2143C1.43663 13.9968 2.44494 15.5913 3.85299 16.7821C3.90486 16.8405 3.9656 16.8905 4.03299 16.9301C5.6303 18.2114 7.61678 18.9096 9.66449 18.9096C11.7122 18.9096 13.6987 18.2114 15.296 16.9301C15.3634 16.8905 15.4241 16.8405 15.476 16.7821ZM14.031 16.0101L13.896 15.6051C13.5561 14.7732 12.9665 14.0673 12.2085 13.5846C11.4506 13.1019 10.5615 12.8663 9.66399 12.9101C8.71883 12.9094 7.79642 13.1999 7.0222 13.742C6.24799 14.2842 5.65958 15.0517 5.33699 15.9401L5.30899 16.0171C6.58237 16.925 8.1077 17.4121 9.67159 17.4103C11.2355 17.4085 12.7597 16.9179 14.031 16.0071V16.0101ZM9.66399 11.4101C10.109 11.4101 10.544 11.2781 10.914 11.0309C11.284 10.7836 11.5724 10.4322 11.7427 10.0211C11.913 9.60997 11.9576 9.15757 11.8708 8.72111C11.7839 8.28465 11.5696 7.88374 11.255 7.56907C10.9403 7.25441 10.5394 7.04011 10.1029 6.9533C9.66649 6.86648 9.21409 6.91104 8.80295 7.08133C8.39182 7.25163 8.04042 7.54002 7.79318 7.91003C7.54595 8.28004 7.41399 8.71506 7.41399 9.16006C7.41399 9.7568 7.65104 10.3291 8.073 10.7511C8.49496 11.173 9.06725 11.4101 9.66399 11.4101Z" fill="#AAAAAA"/>
</svg>
