<svg width="21" height="15" viewBox="0 0 21 15" fill="none" xmlns="http://www.w3.org/2000/svg">
<path fill-rule="evenodd" clip-rule="evenodd" d="M13.5779 0.944997L13.5109 0.967997L7.79593 3.108C7.67347 3.15243 7.54731 3.18589 7.41893 3.208V13.745L7.48593 13.722L13.2039 11.578C13.3265 11.534 13.4526 11.5005 13.5809 11.478V0.944997H13.5779ZM14.4579 0.975997V11.496C14.5891 11.5252 14.7173 11.5664 14.8409 11.619L19.1259 13.456C19.1925 13.4845 19.2651 13.4961 19.3372 13.4898C19.4093 13.4835 19.4788 13.4595 19.5394 13.4199C19.6 13.3804 19.65 13.3265 19.6848 13.263C19.7196 13.1995 19.7382 13.1284 19.7389 13.056V3.525C19.738 3.4396 19.7123 3.35632 19.6649 3.28529C19.6175 3.21426 19.5504 3.15857 19.4719 3.125L14.4969 0.987997L14.4609 0.972997L14.4579 0.975997ZM6.97093 14.69C7.25268 14.6965 7.53307 14.649 7.79693 14.55L13.5149 12.406C13.8333 12.2868 14.1855 12.295 14.4979 12.429L18.7779 14.265C18.9787 14.351 19.1977 14.3859 19.4152 14.3665C19.6328 14.3471 19.8421 14.274 20.0245 14.1538C20.2068 14.0336 20.3565 13.87 20.4601 13.6777C20.5636 13.4854 20.6179 13.2704 20.6179 13.052V3.524C20.6179 3.26572 20.5421 3.01312 20.3999 2.79751C20.2577 2.5819 20.0553 2.41274 19.8179 2.311L14.8439 0.177997C14.3229 -0.0453636 13.7358 -0.0589763 13.2049 0.139997L7.48493 2.284C7.16653 2.40321 6.81441 2.39497 6.50193 2.261L2.21793 0.424997C2.0171 0.33892 1.79804 0.304045 1.5804 0.323499C1.36277 0.342954 1.15337 0.41613 0.970985 0.536462C0.788603 0.656795 0.638944 0.82052 0.535436 1.01295C0.431928 1.20538 0.377807 1.42049 0.37793 1.639V11.165C0.377852 11.4233 0.453622 11.676 0.595838 11.8916C0.738054 12.1072 0.940457 12.2764 1.17793 12.378L6.15493 14.512C6.41214 14.6225 6.68807 14.6829 6.96793 14.69H6.97093ZM6.53993 13.717V3.194C6.40877 3.16478 6.28057 3.12361 6.15693 3.071L1.87193 1.233C1.80536 1.20453 1.7328 1.19292 1.66067 1.19921C1.58855 1.2055 1.51909 1.2295 1.45846 1.26906C1.39782 1.30863 1.34789 1.36254 1.31309 1.42602C1.27828 1.48951 1.25968 1.5606 1.25893 1.633V11.165C1.26019 11.2503 1.28606 11.3334 1.33342 11.4044C1.38079 11.4753 1.44763 11.5311 1.52593 11.565L6.50393 13.698L6.53993 13.717Z" fill="#293644"/>
</svg>
