<svg width="19" height="19" viewBox="0 0 19 19" fill="none" xmlns="http://www.w3.org/2000/svg">
<path fill-rule="evenodd" clip-rule="evenodd" d="M13.6468 10.809C14.6402 9.39184 15.2141 7.72343 15.3028 5.99504C15.3028 4.48609 14.7034 3.03895 13.6364 1.97196C12.5694 0.90497 11.1223 0.305542 9.61333 0.305542C8.10438 0.305542 6.65724 0.90497 5.59025 1.97196C4.52326 3.03895 3.92383 4.48609 3.92383 5.99504C4.01257 7.72343 4.58649 9.39184 5.57983 10.809H3.82383C3.37852 10.8092 2.94386 10.9452 2.57791 11.199C2.21196 11.4527 1.93214 11.8121 1.77583 12.229L0.462833 15.729C0.338565 16.0601 0.296368 16.4163 0.339854 16.7671C0.38334 17.118 0.511214 17.4532 0.712527 17.7438C0.91384 18.0345 1.1826 18.272 1.49578 18.4361C1.80897 18.6002 2.15726 18.686 2.51083 18.686H16.7108C17.0644 18.686 17.4127 18.6002 17.7259 18.4361C18.0391 18.272 18.3078 18.0345 18.5091 17.7438C18.7105 17.4532 18.8383 17.118 18.8818 16.7671C18.9253 16.4163 18.8831 16.0601 18.7588 15.729L17.4458 12.229C17.2898 11.8129 17.0108 11.4541 16.6458 11.2004C16.2809 10.9467 15.8473 10.8102 15.4028 10.809H13.6468ZM9.61383 4.68604C9.3541 4.68604 9.10021 4.76307 8.88426 4.90739C8.66832 5.05171 8.50003 5.25683 8.40068 5.49681C8.30133 5.73679 8.27539 6.00084 8.32613 6.25556C8.37688 6.51029 8.50203 6.74424 8.68576 6.92783C8.86948 7.11141 9.10353 7.23639 9.35829 7.28693C9.61306 7.33748 9.87709 7.31134 10.117 7.21181C10.3569 7.11228 10.5619 6.94383 10.706 6.72778C10.8502 6.51172 10.927 6.25777 10.9268 5.99804C10.9266 5.64999 10.7881 5.31628 10.5419 5.07026C10.2957 4.82424 9.96189 4.68604 9.61383 4.68604ZM4.79883 5.99804C4.79883 4.72129 5.30602 3.49683 6.20882 2.59403C7.11162 1.69123 8.33608 1.18404 9.61283 1.18404C10.8896 1.18404 12.114 1.69123 13.0168 2.59403C13.9196 3.49683 14.4268 4.72129 14.4268 5.99804C14.2925 7.82471 13.6081 9.56787 12.4638 10.998C11.8278 11.8756 11.1225 12.7009 10.3548 13.466C10.0548 13.766 9.79383 14.009 9.61383 14.171C9.43283 14.007 9.17583 13.771 8.87283 13.465C8.10481 12.7 7.39922 11.8747 6.76283 10.997C5.61783 9.56759 4.93305 7.82461 4.79883 5.99804ZM7.42483 5.99804C7.42483 5.5653 7.55316 5.14227 7.79358 4.78245C8.034 4.42264 8.37572 4.1422 8.77552 3.97659C9.17533 3.81099 9.61526 3.76766 10.0397 3.85208C10.4641 3.93651 10.854 4.1449 11.16 4.45089C11.466 4.75689 11.6744 5.14675 11.7588 5.57118C11.8432 5.99561 11.7999 6.43555 11.6343 6.83535C11.4687 7.23516 11.1882 7.57688 10.8284 7.8173C10.4686 8.05772 10.0456 8.18604 9.61283 8.18604C9.03254 8.18604 8.47601 7.95552 8.06568 7.54519C7.65535 7.13486 7.42483 6.57834 7.42483 5.99804ZM9.33683 15.088H9.33183L9.31583 15.074C9.21983 14.9927 9.12517 14.9097 9.03183 14.825C8.76517 14.5857 8.5075 14.34 8.25883 14.088C7.51111 13.3421 6.81956 12.5419 6.18983 11.694H3.82383C3.55645 11.6939 3.2954 11.7754 3.0756 11.9277C2.85579 12.0799 2.68771 12.2957 2.59383 12.546L1.28083 16.046C1.20633 16.2447 1.18109 16.4585 1.20728 16.6691C1.23348 16.8797 1.31032 17.0808 1.43123 17.2552C1.55214 17.4296 1.71352 17.572 1.90154 17.6704C2.08956 17.7688 2.29863 17.8201 2.51083 17.82H16.7108C16.923 17.82 17.1319 17.7685 17.3198 17.6701C17.5077 17.5716 17.6689 17.4291 17.7897 17.2548C17.9105 17.0804 17.9873 16.8794 18.0134 16.6689C18.0396 16.4584 18.0143 16.2447 17.9398 16.046L16.6268 12.546C16.533 12.2958 16.3651 12.0802 16.1455 11.928C15.9259 11.7757 15.665 11.6941 15.3978 11.694H13.0378C12.4081 12.5419 11.7166 13.3421 10.9688 14.088C10.6282 14.4287 10.2758 14.7574 9.91183 15.074L9.89583 15.088H9.89083C9.81202 15.1535 9.71279 15.1893 9.61033 15.1893C9.50788 15.1893 9.40865 15.1535 9.32983 15.088H9.33683Z" fill="#293644"/>
</svg>
