<svg width="18" height="17" viewBox="0 0 18 17" fill="none" xmlns="http://www.w3.org/2000/svg">
<path fill-rule="evenodd" clip-rule="evenodd" d="M9.44097 1.65826C9.31281 1.56509 9.15843 1.51491 8.99997 1.51491C8.84152 1.51491 8.68714 1.56509 8.55897 1.65826L3.74997 5.15526V13.9103C3.74997 14.1092 3.82899 14.2999 3.96964 14.4406C4.1103 14.5812 4.30106 14.6603 4.49997 14.6603H5.99997V10.1603C5.99997 9.56353 6.23703 8.99123 6.65898 8.56927C7.08094 8.14732 7.65324 7.91026 8.24997 7.91026H9.74997C10.3467 7.91026 10.919 8.14732 11.341 8.56927C11.7629 8.99123 12 9.56353 12 10.1603V14.6603H13.5C13.6989 14.6603 13.8897 14.5812 14.0303 14.4406C14.171 14.2999 14.25 14.1092 14.25 13.9103V5.15526L9.44097 1.65526V1.65826ZM15.75 6.24226L16.809 7.01227C16.97 7.12923 17.1708 7.17744 17.3674 7.14631C17.5639 7.11518 17.74 7.00725 17.857 6.84626C17.9739 6.68528 18.0222 6.48442 17.991 6.28789C17.9599 6.09135 17.852 5.91523 17.691 5.79826L10.324 0.442265C9.93929 0.162295 9.47575 0.0114746 8.99997 0.0114746C8.52419 0.0114746 8.06066 0.162295 7.67597 0.442265L0.309973 5.80327C0.148987 5.92023 0.0410564 6.09635 0.00992536 6.29289C-0.00548916 6.3902 -0.00158498 6.4896 0.021415 6.58541C0.044415 6.68121 0.0860603 6.77155 0.143973 6.85126C0.201886 6.93098 0.274933 6.9985 0.358942 7.04998C0.442951 7.10147 0.536278 7.1359 0.633594 7.15131C0.830132 7.18244 1.03099 7.13423 1.19197 7.01727L2.24997 6.24226V13.9063C2.24997 14.503 2.48703 15.0753 2.90898 15.4973C3.33094 15.9192 3.90324 16.1563 4.49997 16.1563H13.5C14.0967 16.1563 14.669 15.9192 15.091 15.4973C15.5129 15.0753 15.75 14.503 15.75 13.9063V6.24226ZM10.5 14.6603V10.1603C10.5 9.96135 10.421 9.77059 10.2803 9.62994C10.1397 9.48928 9.94889 9.41026 9.74997 9.41026H8.24997C8.05106 9.41026 7.8603 9.48928 7.71964 9.62994C7.57899 9.77059 7.49997 9.96135 7.49997 10.1603V14.6603H10.5Z" fill="#AAAAAA"/>
</svg>
