<svg width="18" height="14" viewBox="0 0 18 14" fill="none" xmlns="http://www.w3.org/2000/svg">
<path fill-rule="evenodd" clip-rule="evenodd" d="M11 11.5C11 11.6326 10.9473 11.7598 10.8536 11.8536C10.7598 11.9473 10.6326 12 10.5 12H2.5C2.36739 12 2.24021 11.9473 2.14645 11.8536C2.05268 11.7598 2 11.6326 2 11.5V2.5C2 2.36739 2.05268 2.24021 2.14645 2.14645C2.24021 2.05268 2.36739 2 2.5 2H10.5C10.6326 2 10.7598 2.05268 10.8536 2.14645C10.9473 2.24021 11 2.36739 11 2.5V4.5C11 4.63261 11.0527 4.75979 11.1464 4.85355C11.2402 4.94732 11.3674 5 11.5 5C11.6326 5 11.7598 4.94732 11.8536 4.85355C11.9473 4.75979 12 4.63261 12 4.5V2.5C12 2.10218 11.842 1.72064 11.5607 1.43934C11.2794 1.15804 10.8978 1 10.5 1H2.5C2.10218 1 1.72064 1.15804 1.43934 1.43934C1.15804 1.72064 1 2.10218 1 2.5L1 11.5C1 11.8978 1.15804 12.2794 1.43934 12.5607C1.72064 12.842 2.10218 13 2.5 13H10.5C10.8978 13 11.2794 12.842 11.5607 12.5607C11.842 12.2794 12 11.8978 12 11.5V9.5C12 9.36739 11.9473 9.24021 11.8536 9.14645C11.7598 9.05268 11.6326 9 11.5 9C11.3674 9 11.2402 9.05268 11.1464 9.14645C11.0527 9.24021 11 9.36739 11 9.5V11.5Z" fill="#AAAAAA" stroke="#AAAAAA" stroke-width="0.5"/>
<path fill-rule="evenodd" clip-rule="evenodd" d="M16.854 7.35414C16.9006 7.3077 16.9375 7.25252 16.9627 7.19178C16.9879 7.13103 17.0009 7.06591 17.0009 7.00014C17.0009 6.93438 16.9879 6.86926 16.9627 6.80851C16.9375 6.74776 16.9006 6.69259 16.854 6.64614L13.854 3.64614C13.7601 3.55226 13.6328 3.49951 13.5 3.49951C13.3672 3.49951 13.2399 3.55226 13.146 3.64614C13.0521 3.74003 12.9994 3.86737 12.9994 4.00014C12.9994 4.13292 13.0521 4.26026 13.146 4.35414L15.293 6.50014H6.5C6.36739 6.50014 6.24021 6.55282 6.14645 6.64659C6.05268 6.74036 6 6.86754 6 7.00014C6 7.13275 6.05268 7.25993 6.14645 7.3537C6.24021 7.44747 6.36739 7.50014 6.5 7.50014H15.293L13.146 9.64614C13.0521 9.74003 12.9994 9.86737 12.9994 10.0001C12.9994 10.1329 13.0521 10.2603 13.146 10.3541C13.2399 10.448 13.3672 10.5008 13.5 10.5008C13.6328 10.5008 13.7601 10.448 13.854 10.3541L16.854 7.35414Z" fill="#AAAAAA" stroke="#AAAAAA" stroke-width="0.5"/>
</svg>
