<svg width="16" height="13" viewBox="0 0 16 13" fill="none" xmlns="http://www.w3.org/2000/svg">
<path d="M14.8793 0H1.12069C0.501748 0 0 0.501748 0 1.12068C0 1.73962 0.501747 2.24137 1.12068 2.24137H14.8793C15.4982 2.24137 16 1.73962 16 1.12068C16 0.501748 15.4982 0 14.8793 0Z" fill="#484848"/>
<path d="M14.8793 5.3793H1.12069C0.501748 5.3793 0 5.88105 0 6.49999C0 7.11893 0.501747 7.62067 1.12068 7.62067H14.8793C15.4982 7.62067 16 7.11893 16 6.49999C16 5.88105 15.4982 5.3793 14.8793 5.3793Z" fill="#484848"/>
<path d="M14.8793 10.7587H9.12065C8.50172 10.7587 7.99997 11.2604 7.99997 11.8794C7.99997 12.4983 8.50172 13 9.12065 13H14.8793C15.4982 13 16 12.4983 16 11.8794C16 11.2604 15.4982 10.7587 14.8793 10.7587Z" fill="#484848"/>
</svg>
