<svg width="15" height="15" viewBox="0 0 15 15" fill="none" xmlns="http://www.w3.org/2000/svg">
<path d="M3.90155 6.74983C3.18287 6.74983 2.4646 6.75067 1.74592 6.74942C0.725499 6.74775 0.00348067 6.02865 0.00222862 5.01198C0.000559211 3.91893 0.000559211 2.82547 0.00222862 1.73243C0.00389803 0.724523 0.726751 0.00292146 1.73633 0.00125206C2.82979 -0.000417352 3.92283 -0.000417352 5.01629 0.00125206C6.02712 0.00292146 6.74997 0.723271 6.75123 1.73118C6.75331 3.21486 6.75206 4.69855 6.75164 6.18182C6.75164 6.55243 6.55382 6.749 6.18196 6.74942C5.42154 6.75025 4.66155 6.74983 3.90155 6.74983ZM5.75167 5.75028C5.75167 5.67933 5.75167 5.633 5.75167 5.58626C5.75167 4.30624 5.75209 3.0258 5.75167 1.74578C5.75167 1.27209 5.47997 1.00123 5.00586 1.00123C3.92325 1.00081 2.84064 1.00081 1.75803 1.00123C1.27139 1.00123 1.0022 1.26792 1.0022 1.75121C1.00179 2.8284 1.00179 3.90558 1.0022 4.98277C1.0022 5.48776 1.26555 5.74986 1.77263 5.75028C3.03721 5.75069 4.30221 5.75028 5.56678 5.75028C5.62271 5.75028 5.67863 5.75028 5.75167 5.75028Z" fill="white"/>
<path d="M11.079 6.75015C10.324 6.75015 9.569 6.75056 8.81401 6.74973C8.45383 6.74931 8.25184 6.54857 8.25142 6.1909C8.251 4.7022 8.24933 3.21309 8.25184 1.72439C8.25351 0.726923 8.97886 0.00365183 9.97842 0.00156507C11.0769 -0.00052169 12.1754 -0.00052169 13.2742 0.00156507C14.2755 0.00365183 14.9987 0.725253 15.0008 1.72439C15.0033 2.82286 15.0029 3.92134 15.0008 5.01939C14.9992 6.02729 14.2759 6.74723 13.2655 6.74973C12.5368 6.75182 11.8081 6.75015 11.079 6.75015ZM9.25139 5.74099C9.28687 5.74516 9.30649 5.74975 9.3261 5.74975C10.6637 5.75017 12.0013 5.75268 13.3389 5.74809C13.7191 5.74683 13.9992 5.45093 14 5.06196C14.0029 3.93803 14.0029 2.8141 14 1.68975C13.9992 1.28743 13.7121 1.00279 13.3081 1.00196C12.1891 0.999454 11.0702 0.999871 9.95088 1.00196C9.53728 1.00279 9.25473 1.28618 9.25139 1.6981C9.24889 2.04659 9.25098 2.3955 9.25098 2.74399C9.2514 3.7377 9.25139 4.73183 9.25139 5.74099Z" fill="white"/>
<path d="M11.0923 8.24996C11.816 8.24996 12.5396 8.24871 13.2633 8.25038C14.2808 8.25247 14.9995 8.97365 15.0008 9.99407C15.002 11.0821 15.002 12.1701 15.0008 13.2578C14.9995 14.2774 14.28 14.9973 13.2604 14.9985C12.1724 15.0002 11.0843 14.9998 9.99589 14.9985C8.97588 14.9973 8.25261 14.2778 8.25136 13.2619C8.24969 11.7837 8.25094 10.305 8.25094 8.82674C8.25094 8.4457 8.44668 8.25038 8.8273 8.24996C9.58229 8.24954 10.3373 8.24996 11.0923 8.24996ZM9.25091 9.24994C9.25091 9.32297 9.25091 9.37431 9.25091 9.42606C9.25091 10.6956 9.25091 11.9656 9.25091 13.2352C9.25091 13.7327 9.5151 13.999 10.0088 13.9994C11.086 13.9998 12.1636 13.9998 13.2408 13.9994C13.7349 13.9994 14.0004 13.7327 14.0008 13.2369C14.0012 12.1647 14.0012 11.093 14.0008 10.0208C14.0008 9.5137 13.7387 9.25036 13.2337 9.24994C11.9637 9.24952 10.6937 9.24994 9.42411 9.24994C9.3732 9.24994 9.32186 9.24994 9.25091 9.24994Z" fill="white"/>
<path d="M3.91299 8.25014C4.66798 8.25014 5.42297 8.24973 6.17796 8.25014C6.55608 8.25056 6.7514 8.44755 6.7514 8.82943C6.75182 10.3077 6.75265 11.7864 6.75098 13.2646C6.74973 14.2742 6.02813 14.9966 5.01939 14.9983C3.92092 15.0004 2.82245 15.0008 1.72356 14.9983C0.726506 14.9958 0.00365183 14.27 0.00156507 13.2705C-0.00052169 12.172 -0.00052169 11.0735 0.00156507 9.97548C0.00365183 8.97634 0.726506 8.25348 1.72606 8.25056C2.45518 8.24847 3.18429 8.25014 3.91299 8.25014ZM5.75142 9.25012C5.68089 9.25012 5.63456 9.25012 5.58782 9.25012C4.30739 9.25012 3.02695 9.2497 1.74693 9.25012C1.2724 9.25012 1.00196 9.52098 1.00154 9.99509C1.00112 11.0773 1.00112 12.1599 1.00154 13.2421C1.00154 13.7287 1.26865 13.9983 1.7511 13.9987C2.83372 13.9992 3.91633 13.9992 4.99894 13.9987C5.48265 13.9983 5.75101 13.7291 5.75142 13.2446C5.75184 11.9696 5.75142 10.6946 5.75142 9.41956C5.75142 9.36907 5.75142 9.31815 5.75142 9.25012Z" fill="white"/>
</svg>
