<svg width="17" height="18" viewBox="0 0 17 18" fill="none" xmlns="http://www.w3.org/2000/svg">
<path d="M6.25 13.125C6.25 12.9592 6.31585 12.8003 6.43306 12.6831C6.55027 12.5658 6.70924 12.5 6.875 12.5H9.375C9.54076 12.5 9.69973 12.5658 9.81694 12.6831C9.93415 12.8003 10 12.9592 10 13.125C10 13.2908 9.93415 13.4497 9.81694 13.5669C9.69973 13.6842 9.54076 13.75 9.375 13.75H6.875C6.70924 13.75 6.55027 13.6842 6.43306 13.5669C6.31585 13.4497 6.25 13.2908 6.25 13.125ZM6.25 10.625C6.25 10.4592 6.31585 10.3003 6.43306 10.1831C6.55027 10.0658 6.70924 10 6.875 10H13.125C13.2908 10 13.4497 10.0658 13.5669 10.1831C13.6842 10.3003 13.75 10.4592 13.75 10.625C13.75 10.7908 13.6842 10.9497 13.5669 11.0669C13.4497 11.1842 13.2908 11.25 13.125 11.25H6.875C6.70924 11.25 6.55027 11.1842 6.43306 11.0669C6.31585 10.9497 6.25 10.7908 6.25 10.625ZM6.25 8.125C6.25 7.95924 6.31585 7.80027 6.43306 7.68306C6.55027 7.56585 6.70924 7.5 6.875 7.5H13.125C13.2908 7.5 13.4497 7.56585 13.5669 7.68306C13.6842 7.80027 13.75 7.95924 13.75 8.125C13.75 8.29076 13.6842 8.44973 13.5669 8.56694C13.4497 8.68415 13.2908 8.75 13.125 8.75H6.875C6.70924 8.75 6.55027 8.68415 6.43306 8.56694C6.31585 8.44973 6.25 8.29076 6.25 8.125ZM6.25 5.625C6.25 5.45924 6.31585 5.30027 6.43306 5.18306C6.55027 5.06585 6.70924 5 6.875 5H13.125C13.2908 5 13.4497 5.06585 13.5669 5.18306C13.6842 5.30027 13.75 5.45924 13.75 5.625C13.75 5.79076 13.6842 5.94973 13.5669 6.06694C13.4497 6.18415 13.2908 6.25 13.125 6.25H6.875C6.70924 6.25 6.55027 6.18415 6.43306 6.06694C6.31585 5.94973 6.25 5.79076 6.25 5.625Z" fill="#484848"/>
<path d="M3.5 0H14.75C15.3467 0 15.919 0.237053 16.341 0.65901C16.7629 1.08097 17 1.65326 17 2.25V15.75C17 16.3467 16.7629 16.919 16.341 17.341C15.919 17.7629 15.3467 18 14.75 18H3.5C2.90326 18 2.33097 17.7629 1.90901 17.341C1.48705 16.919 1.25 16.3467 1.25 15.75V14.625H2.375V15.75C2.375 16.0484 2.49353 16.3345 2.7045 16.5455C2.91548 16.7565 3.20163 16.875 3.5 16.875H14.75C15.0484 16.875 15.3345 16.7565 15.5455 16.5455C15.7565 16.3345 15.875 16.0484 15.875 15.75V2.25C15.875 1.95163 15.7565 1.66548 15.5455 1.4545C15.3345 1.24353 15.0484 1.125 14.75 1.125H3.5C3.20163 1.125 2.91548 1.24353 2.7045 1.4545C2.49353 1.66548 2.375 1.95163 2.375 2.25V3.375H1.25V2.25C1.25 1.65326 1.48705 1.08097 1.90901 0.65901C2.33097 0.237053 2.90326 0 3.5 0Z" fill="#484848"/>
<path d="M1.25 6.25V5.625C1.25 5.45924 1.31585 5.30027 1.43306 5.18306C1.55027 5.06585 1.70924 5 1.875 5C2.04076 5 2.19973 5.06585 2.31694 5.18306C2.43415 5.30027 2.5 5.45924 2.5 5.625V6.25H3.125C3.29076 6.25 3.44973 6.31585 3.56694 6.43306C3.68415 6.55027 3.75 6.70924 3.75 6.875C3.75 7.04076 3.68415 7.19973 3.56694 7.31694C3.44973 7.43415 3.29076 7.5 3.125 7.5H0.625C0.45924 7.5 0.300269 7.43415 0.183058 7.31694C0.065848 7.19973 0 7.04076 0 6.875C0 6.70924 0.065848 6.55027 0.183058 6.43306C0.300269 6.31585 0.45924 6.25 0.625 6.25H1.25ZM1.25 10V9.375C1.25 9.20924 1.31585 9.05027 1.43306 8.93306C1.55027 8.81585 1.70924 8.75 1.875 8.75C2.04076 8.75 2.19973 8.81585 2.31694 8.93306C2.43415 9.05027 2.5 9.20924 2.5 9.375V10H3.125C3.29076 10 3.44973 10.0658 3.56694 10.1831C3.68415 10.3003 3.75 10.4592 3.75 10.625C3.75 10.7908 3.68415 10.9497 3.56694 11.0669C3.44973 11.1842 3.29076 11.25 3.125 11.25H0.625C0.45924 11.25 0.300269 11.1842 0.183058 11.0669C0.065848 10.9497 0 10.7908 0 10.625C0 10.4592 0.065848 10.3003 0.183058 10.1831C0.300269 10.0658 0.45924 10 0.625 10H1.25ZM1.25 13.75V13.125C1.25 12.9592 1.31585 12.8003 1.43306 12.6831C1.55027 12.5658 1.70924 12.5 1.875 12.5C2.04076 12.5 2.19973 12.5658 2.31694 12.6831C2.43415 12.8003 2.5 12.9592 2.5 13.125V13.75H3.125C3.29076 13.75 3.44973 13.8158 3.56694 13.9331C3.68415 14.0503 3.75 14.2092 3.75 14.375C3.75 14.5408 3.68415 14.6997 3.56694 14.8169C3.44973 14.9342 3.29076 15 3.125 15H0.625C0.45924 15 0.300269 14.9342 0.183058 14.8169C0.065848 14.6997 0 14.5408 0 14.375C0 14.2092 0.065848 14.0503 0.183058 13.9331C0.300269 13.8158 0.45924 13.75 0.625 13.75H1.25Z" fill="#484848"/>
</svg>
