<svg width="18" height="19" viewBox="0 0 18 19" fill="none" xmlns="http://www.w3.org/2000/svg">
<path fill-rule="evenodd" clip-rule="evenodd" d="M12 7.66016C12 6.6218 11.6921 5.60677 11.1152 4.74341C10.5383 3.88005 9.71838 3.20715 8.75906 2.80979C7.79975 2.41243 6.74415 2.30846 5.72575 2.51103C4.70735 2.71361 3.77189 3.21362 3.03766 3.94785C2.30344 4.68207 1.80342 5.61753 1.60085 6.63593C1.39828 7.65433 1.50225 8.70993 1.89961 9.66924C2.29697 10.6286 2.96987 11.4485 3.83323 12.0254C4.69659 12.6022 5.71162 12.9102 6.74998 12.9102C8.14236 12.9102 9.47772 12.357 10.4623 11.3725C11.4469 10.3879 12 9.05254 12 7.66016ZM6.74998 0.910156C8.04201 0.910206 9.30689 1.28107 10.3944 1.97871C11.4819 2.67635 12.3463 3.67145 12.885 4.84582C13.4237 6.0202 13.6141 7.32452 13.4334 8.60386C13.2528 9.88321 12.7088 11.0838 11.866 12.0632L17.766 17.6142C17.9113 17.7507 17.9964 17.9395 18.0026 18.1388C18.0088 18.3382 17.9356 18.5318 17.799 18.6772C17.6624 18.8225 17.4737 18.9076 17.2743 18.9138C17.075 18.92 16.8813 18.8467 16.736 18.7102L10.764 13.0902C9.90544 13.7241 8.9088 14.1455 7.85587 14.3197C6.80293 14.4938 5.7237 14.4158 4.70674 14.0921C3.68978 13.7684 2.76408 13.2081 2.00561 12.4573C1.24713 11.7065 0.677495 10.7865 0.34345 9.77289C0.00940469 8.75927 -0.0795304 7.68089 0.0839429 6.62624C0.247416 5.57159 0.658638 4.57073 1.28386 3.7058C1.90909 2.84087 2.73049 2.13652 3.68068 1.65055C4.63086 1.16458 5.68273 0.910838 6.74998 0.910156Z" fill="#AAAAAA"/>
</svg>
