<svg width="18" height="18" viewBox="0 0 18 18" fill="none" xmlns="http://www.w3.org/2000/svg">
<path d="M6.00526 1.78875C4.93374 2.08386 3.86955 2.40495 2.81363 2.75175C2.71714 2.78287 2.63136 2.84052 2.5661 2.91811C2.50084 2.99571 2.45875 3.0901 2.44463 3.1905C1.82138 7.86713 3.26138 11.2793 4.97926 13.527C5.70627 14.4885 6.57357 15.3353 7.55213 16.0391C7.94138 16.3136 8.28563 16.5116 8.55676 16.6388C8.69176 16.7025 8.80163 16.7467 8.88638 16.7715C8.92374 16.7828 8.96167 16.7922 9.00001 16.7996C9.03796 16.7922 9.07551 16.7828 9.11251 16.7715C9.19801 16.746 9.30826 16.7017 9.44326 16.6388C9.71326 16.5116 10.0586 16.3125 10.4479 16.0391C11.4264 15.3353 12.2937 14.4885 13.0208 13.527C14.7386 11.2804 16.1786 7.86713 15.5554 3.1905C15.5413 3.0901 15.4992 2.99571 15.4339 2.91811C15.3687 2.84052 15.2829 2.78287 15.1864 2.75175C14.454 2.51213 13.2176 2.12175 11.9948 1.78987C10.746 1.45125 9.59738 1.20038 9.00001 1.20038C8.40376 1.20038 7.25401 1.45012 6.00526 1.78875ZM5.70601 0.63C6.92663 0.298125 8.22376 0 9.00001 0C9.77626 0 11.0734 0.298125 12.294 0.63C13.5428 0.9675 14.8016 1.36687 15.5419 1.60875C15.8514 1.71096 16.1258 1.8984 16.3335 2.14954C16.5413 2.40068 16.674 2.70533 16.7164 3.0285C17.3869 8.06513 15.831 11.7979 13.9433 14.2673C13.1424 15.3233 12.188 16.2535 11.1116 17.0269C10.7398 17.2951 10.3453 17.5304 9.93263 17.73C9.61763 17.8785 9.27901 18 9.00001 18C8.72101 18 8.38351 17.8785 8.06738 17.73C7.65466 17.5304 7.26017 17.2951 6.88838 17.0269C5.81204 16.2535 4.85758 15.3233 4.05676 14.2673C2.16901 11.7979 0.613131 8.06513 1.28363 3.0285C1.32603 2.70533 1.45873 2.40068 1.66649 2.14954C1.87425 1.8984 2.14863 1.71096 2.45813 1.60875C3.53279 1.25664 4.61573 0.930292 5.70601 0.63Z" fill="#484848"/>
<path d="M10.6875 7.31259C10.6877 7.66171 10.5796 8.00229 10.3781 8.28739C10.1766 8.5725 9.89165 8.78809 9.5625 8.90447L9.99563 11.1432C10.0114 11.2246 10.0089 11.3085 9.98847 11.3889C9.968 11.4693 9.93001 11.5441 9.87722 11.6081C9.82444 11.6721 9.75816 11.7236 9.68313 11.7589C9.6081 11.7943 9.52619 11.8126 9.44325 11.8126H8.55675C8.47391 11.8124 8.39212 11.794 8.31723 11.7586C8.24235 11.7232 8.17621 11.6716 8.12354 11.6077C8.07088 11.5437 8.03299 11.4689 8.01258 11.3886C7.99218 11.3084 7.98976 11.2246 8.0055 11.1432L8.4375 8.90447C8.14586 8.80136 7.88817 8.62006 7.69259 8.3804C7.49701 8.14074 7.37107 7.85193 7.32853 7.54553C7.28599 7.23914 7.32849 6.92694 7.45139 6.64307C7.57428 6.35919 7.77284 6.11456 8.02536 5.93589C8.27789 5.75723 8.57466 5.65142 8.88325 5.63002C9.19185 5.60862 9.50039 5.67245 9.77516 5.81455C10.0499 5.95664 10.2804 6.17153 10.4413 6.43572C10.6022 6.69992 10.6873 7.00326 10.6875 7.31259Z" fill="#484848"/>
</svg>
