<svg width="15" height="21" viewBox="0 0 15 21" fill="none" xmlns="http://www.w3.org/2000/svg">
<path fill-rule="evenodd" clip-rule="evenodd" d="M7.16303 8.13806L7.16903 8.14506C7.21039 8.19107 7.26096 8.22787 7.31747 8.25306C7.37398 8.27825 7.43516 8.29127 7.49703 8.29127C7.5589 8.29127 7.62008 8.27825 7.67659 8.25306C7.7331 8.22787 7.78367 8.19107 7.82503 8.14506L7.83103 8.13806L7.85503 8.11206L7.94103 8.01206C8.3757 7.51072 8.78736 6.99106 9.17603 6.45306C9.52533 5.97591 9.84044 5.47466 10.119 4.95306C10.3848 4.49168 10.5428 3.97614 10.581 3.44506C10.581 2.62607 10.2557 1.84062 9.67657 1.26151C9.09746 0.682398 8.31202 0.357056 7.49303 0.357056C6.67404 0.357056 5.8886 0.682398 5.30948 1.26151C4.73037 1.84062 4.40503 2.62607 4.40503 3.44506C4.44527 3.97673 4.60563 4.49234 4.87403 4.95306C5.15257 5.4749 5.46804 5.97617 5.81803 6.45306C6.23203 7.02639 6.6727 7.57939 7.14003 8.11206L7.16303 8.13806ZM7.50003 1.23806C6.91548 1.23806 6.35483 1.47006 5.94121 1.88312C5.52759 2.29617 5.29482 2.85651 5.29403 3.44106C5.33501 3.8296 5.45916 4.20476 5.65803 4.54106C5.91643 5.02537 6.20918 5.49056 6.53403 5.93306C6.8407 6.35772 7.16236 6.77072 7.49903 7.17206L7.57303 7.08406C7.81703 6.78906 8.14103 6.38406 8.46403 5.93306C8.78907 5.49069 9.08183 5.02549 9.34003 4.54106C9.53907 4.20484 9.66323 3.82964 9.70403 3.44106C9.70403 2.85633 9.47189 2.29553 9.05861 1.88188C8.64534 1.46824 8.08475 1.23559 7.50003 1.23506V1.23806Z" fill="#293644"/>
<path fill-rule="evenodd" clip-rule="evenodd" d="M7.5 10.9411C7.38304 10.9411 7.27087 10.9875 7.18817 11.0702C7.10546 11.1529 7.059 11.2651 7.059 11.3821C7.059 11.499 7.10546 11.6112 7.18817 11.6939C7.27087 11.7766 7.38304 11.8231 7.5 11.8231H12.353C12.5883 11.8175 12.8222 11.859 13.0412 11.9451C13.2602 12.0313 13.4597 12.1604 13.6281 12.3248C13.7965 12.4892 13.9303 12.6856 14.0216 12.9024C14.113 13.1193 14.16 13.3523 14.16 13.5876C14.16 13.8229 14.113 14.0558 14.0216 14.2727C13.9303 14.4896 13.7965 14.686 13.6281 14.8504C13.4597 15.0148 13.2602 15.1439 13.0412 15.23C12.8222 15.3162 12.5883 15.3577 12.353 15.3521H2.647C1.94497 15.3521 1.2717 15.631 0.775289 16.1274C0.27888 16.6238 0 17.297 0 17.9991C0 18.7011 0.27888 19.3744 0.775289 19.8708C1.2717 20.3672 1.94497 20.6461 2.647 20.6461H7.5C7.61696 20.6461 7.72913 20.5996 7.81183 20.5169C7.89454 20.4342 7.941 20.322 7.941 20.2051C7.941 20.0881 7.89454 19.9759 7.81183 19.8932C7.72913 19.8105 7.61696 19.7641 7.5 19.7641H2.647C2.41175 19.7697 2.17775 19.7282 1.95877 19.642C1.73979 19.5559 1.54025 19.4268 1.37189 19.2624C1.20353 19.098 1.06974 18.9016 0.978392 18.6847C0.887047 18.4678 0.839991 18.2349 0.839991 17.9996C0.839991 17.7643 0.887047 17.5313 0.978392 17.3144C1.06974 17.0976 1.20353 16.9012 1.37189 16.7368C1.54025 16.5724 1.73979 16.4433 1.95877 16.3571C2.17775 16.271 2.41175 16.2295 2.647 16.2351H12.353C13.055 16.2351 13.7283 15.9562 14.2247 15.4598C14.7211 14.9634 15 14.2901 15 13.5881C15 12.886 14.7211 12.2128 14.2247 11.7164C13.7283 11.22 13.055 10.9411 12.353 10.9411H7.5Z" fill="#293644"/>
</svg>
