<svg width="17" height="18" viewBox="0 0 17 18" fill="none" xmlns="http://www.w3.org/2000/svg">
<g clip-path="url(#clip0_1897_616)">
<path d="M15.42 17.4299H6.51001C6.10501 17.4299 5.70001 17.0249 5.70001 16.6199V7.7099C5.70001 7.3049 6.10501 6.8999 6.51001 6.8999H15.42C15.825 6.8999 16.23 7.3049 16.23 7.7099V16.6199C16.23 17.0249 15.825 17.4299 15.42 17.4299Z" fill="#484848" stroke="#484848" stroke-width="0.84375" stroke-miterlimit="10"/>
<path d="M9.73757 15.3001H8.59851L10.6724 9.40918H11.9898L14.0666 15.3001H12.9275L11.3541 10.6173H11.3081L9.73757 15.3001ZM9.77497 12.9903H12.8815V13.8475H9.77497V12.9903Z" fill="white"/>
<path d="M9.75004 11.625H0.975039C0.570039 11.625 0.165039 11.22 0.165039 10.815V2.03998C0.165039 1.63498 0.570039 1.22998 0.975039 1.22998H9.75004C10.155 1.22998 10.56 1.63498 10.56 2.03998V10.815C10.56 11.22 10.155 11.625 9.75004 11.625Z" fill="white" stroke="#484848" stroke-width="0.84375" stroke-miterlimit="10"/>
<path d="M5.51103 9.55979C5.20953 9.55979 4.91478 9.52379 4.62678 9.45179C4.34328 9.37979 4.08678 9.26504 3.85728 9.10754C3.62778 8.95454 3.44553 8.75654 3.31053 8.51354C3.17553 8.27054 3.10803 7.97804 3.10803 7.63604C3.10803 7.26704 3.18228 6.92954 3.33078 6.62354C3.47928 6.31304 3.68853 6.03854 3.95853 5.80004C4.22853 5.56154 4.54803 5.36354 4.91703 5.20604C5.29053 5.04404 5.69778 4.92929 6.13878 4.86179L6.36153 5.75279C5.96553 5.82479 5.62128 5.91929 5.32878 6.03629C5.04078 6.15329 4.80228 6.29054 4.61328 6.44804C4.42428 6.60554 4.28253 6.77429 4.18803 6.95429C4.09803 7.13879 4.05303 7.33229 4.05303 7.53479C4.05303 7.69679 4.08228 7.83854 4.14078 7.96004C4.20378 8.08154 4.28703 8.18279 4.39053 8.26379C4.49403 8.34929 4.60878 8.41679 4.73478 8.46629C4.86078 8.52029 4.99128 8.55854 5.12628 8.58104C5.26128 8.60354 5.38953 8.61479 5.51103 8.61479C5.82153 8.61479 6.10953 8.58554 6.37503 8.52704C6.64503 8.46854 6.88128 8.39654 7.08378 8.31104L7.35378 9.18179C7.24578 9.23579 7.09278 9.29204 6.89478 9.35054C6.70128 9.40904 6.48303 9.45854 6.24003 9.49904C6.00153 9.53954 5.75853 9.55979 5.51103 9.55979ZM4.16778 5.82029C4.01028 5.75729 3.86403 5.66729 3.72903 5.55029C3.59853 5.43329 3.49278 5.28929 3.41178 5.11829C3.33528 4.94279 3.29703 4.74254 3.29703 4.51754C3.29703 4.23404 3.37128 3.98879 3.51978 3.78179C3.66828 3.57479 3.86628 3.41504 4.11378 3.30254C4.36128 3.19004 4.63128 3.13379 4.92378 3.13379C5.06778 3.13379 5.20053 3.14279 5.32203 3.16079C5.44803 3.17879 5.57628 3.20579 5.70678 3.24179L5.55828 4.13954C5.46378 4.11704 5.36703 4.09904 5.26803 4.08554C5.16903 4.07204 5.08128 4.06529 5.00478 4.06529C4.84728 4.06529 4.71003 4.08779 4.59303 4.13279C4.48053 4.17779 4.39278 4.24304 4.32978 4.32854C4.27128 4.40954 4.24203 4.50629 4.24203 4.61879C4.24203 4.70879 4.26903 4.79429 4.32303 4.87529C4.38153 4.95629 4.45578 5.02829 4.54578 5.09129C4.63578 5.14979 4.73478 5.19929 4.84278 5.23979C4.95078 5.27579 5.05653 5.29604 5.16003 5.30054L4.16778 5.82029Z" fill="#484848"/>
</g>
<defs>
<clipPath id="clip0_1897_616">
<rect width="16.8" height="18" fill="white"/>
</clipPath>
</defs>
</svg>
