<svg width="19" height="23" viewBox="0 0 19 23" fill="none" xmlns="http://www.w3.org/2000/svg">
<path fill-rule="evenodd" clip-rule="evenodd" d="M8.5 1C8.10218 1 7.72064 1.15804 7.43934 1.43934C7.15804 1.72064 7 2.10218 7 2.5V4H12V2.5C12 2.10218 11.842 1.72064 11.5607 1.43934C11.2794 1.15804 10.8978 1 10.5 1H8.5ZM13 4V2.5C13 2.1717 12.9353 1.84661 12.8097 1.54329C12.6841 1.23998 12.4999 0.964379 12.2678 0.732233C12.0356 0.500087 11.76 0.315938 11.4567 0.190301C11.1534 0.0646644 10.8283 0 10.5 0H8.5C7.83696 0 7.20107 0.263392 6.73223 0.732233C6.26339 1.20107 6 1.83696 6 2.5V4H0.5C0.367392 4 0.240215 4.05268 0.146447 4.14645C0.0526785 4.24021 0 4.36739 0 4.5C0 4.63261 0.0526785 4.75979 0.146447 4.85355C0.240215 4.94732 0.367392 5 0.5 5H1.052L2.805 20.776C2.87293 21.3875 3.164 21.9525 3.62249 22.3629C4.08098 22.7732 4.6747 23.0001 5.29 23H13.71C14.3262 23.0013 14.9211 22.775 15.3806 22.3646C15.8402 21.9541 16.132 21.3884 16.2 20.776L17.948 5H18.5C18.6326 5 18.7598 4.94732 18.8536 4.85355C18.9473 4.75979 19 4.63261 19 4.5C19 4.36739 18.9473 4.24021 18.8536 4.14645C18.7598 4.05268 18.6326 4 18.5 4H13ZM16.941 5H2.06L3.8 20.666C3.84083 21.0327 4.01537 21.3715 4.29024 21.6175C4.56512 21.8636 4.92105 21.9998 5.29 22H13.71C14.0789 21.9998 14.4349 21.8636 14.7098 21.6175C14.9846 21.3715 15.1592 21.0327 15.2 20.666L16.941 5ZM7.5 9C7.63261 9 7.75979 9.05268 7.85355 9.14645C7.94732 9.24021 8 9.36739 8 9.5V17.5C8 17.6326 7.94732 17.7598 7.85355 17.8536C7.75979 17.9473 7.63261 18 7.5 18C7.36739 18 7.24021 17.9473 7.14645 17.8536C7.05268 17.7598 7 17.6326 7 17.5V9.5C7 9.36739 7.05268 9.24021 7.14645 9.14645C7.24021 9.05268 7.36739 9 7.5 9ZM11.5 9C11.6326 9 11.7598 9.05268 11.8536 9.14645C11.9473 9.24021 12 9.36739 12 9.5V17.5C12 17.6326 11.9473 17.7598 11.8536 17.8536C11.7598 17.9473 11.6326 18 11.5 18C11.3674 18 11.2402 17.9473 11.1464 17.8536C11.0527 17.7598 11 17.6326 11 17.5V9.5C11 9.36739 11.0527 9.24021 11.1464 9.14645C11.2402 9.05268 11.3674 9 11.5 9Z" fill="#FD4057"/>
</svg>
